<svg xmlns="http://www.w3.org/2000/svg" viewBox="0 0 272 96" width="272" height="96">
  <defs>
   <linearGradient id="g" x1="0" y1="0" x2="1" y2="1">
    <stop offset="0%" stop-color="#38bdf8"></stop>
    <stop offset="50%" stop-color="#a78bfa"></stop>
    <stop offset="100%" stop-color="#22d3ee"></stop>
   </linearGradient>
   <linearGradient id="gt" x1="102" y1="0" x2="247.656" y2="0" gradientUnits="userSpaceOnUse">
    <stop offset="0%" stop-color="#38bdf8"></stop>
    <stop offset="50%" stop-color="#a78bfa"></stop>
    <stop offset="100%" stop-color="#22d3ee"></stop>
   </linearGradient>
   <radialGradient id="glowA" cx="12%" cy="0%" r="60%"><stop offset="0%" stop-color="#0ea5e9" stop-opacity="0.18"></stop><stop offset="100%" stop-color="#0ea5e9" stop-opacity="0"></stop></radialGradient>
   <radialGradient id="glowB" cx="78%" cy="0%" r="55%"><stop offset="0%" stop-color="#a855f7" stop-opacity="0.16"></stop><stop offset="100%" stop-color="#a855f7" stop-opacity="0"></stop></radialGradient>
  </defs>
  <rect width="272" height="96" rx="18" fill="#05070d"></rect>
  <rect width="272" height="96" rx="18" fill="url(#glowA)"></rect>
  <rect width="272" height="96" rx="18" fill="url(#glowB)"></rect>
  <g transform="translate(16 14) scale(0.5666666666666667)">
    <path d="M 71 99 L 90 99 L 100 55 L 60 20 L 20 55 L 30 99 L 49 99" fill="none" stroke="url(#g)" stroke-width="10.5" stroke-linecap="round" stroke-linejoin="round"></path>
  </g>
  <g transform="translate(102 68.384)"><path d="M17.024 0.784L17.024 0.784Q12.992 0.784 9.744-0.896Q6.496-2.576 4.620-5.768Q2.744-8.960 2.744-13.440L2.744-13.440L2.744-14.224Q2.744-18.704 4.620-21.896Q6.496-25.088 9.744-26.768Q12.992-28.448 17.024-28.448L17.024-28.448Q21-28.448 23.828-27.048Q26.656-25.648 28.392-23.212Q30.128-20.776 30.632-17.752L30.632-17.752L24.416-16.464Q24.192-18.200 23.352-19.628Q22.512-21.056 20.972-21.896Q19.432-22.736 17.192-22.736L17.192-22.736Q14.896-22.736 13.076-21.756Q11.256-20.776 10.220-18.816Q9.184-16.856 9.184-14.112L9.184-14.112L9.184-13.552Q9.184-10.808 10.220-8.876Q11.256-6.944 13.076-5.936Q14.896-4.928 17.192-4.928L17.192-4.928Q20.608-4.928 22.372-6.692Q24.136-8.456 24.584-11.256L24.584-11.256L30.800-9.800Q30.128-6.888 28.392-4.480Q26.656-2.072 23.828-0.644Q21 0.784 17.024 0.784Z M44.520 0.784L44.520 0.784Q41.608 0.784 39.256-0.252Q36.904-1.288 35.532-3.248Q34.160-5.208 34.160-8.064L34.160-8.064Q34.160-10.864 35.532-12.768Q36.904-14.672 39.312-15.652Q41.720-16.632 44.800-16.632L44.800-16.632L52.808-16.632L52.808-18.312Q52.808-20.496 51.464-21.868Q50.120-23.240 47.264-23.240L47.264-23.240Q44.464-23.240 43.036-21.924Q41.608-20.608 41.160-18.536L41.160-18.536L35.224-20.496Q35.896-22.680 37.380-24.472Q38.864-26.264 41.328-27.356Q43.792-28.448 47.376-28.448L47.376-28.448Q52.808-28.448 55.916-25.732Q59.024-23.016 59.024-17.864L59.024-17.864L59.024-7Q59.024-5.320 60.592-5.320L60.592-5.320L62.944-5.320L62.944 0L58.408 0Q56.392 0 55.104-1.008Q53.816-2.016 53.816-3.752L53.816-3.752L53.816-3.864L52.864-3.864Q52.528-3.080 51.688-1.960Q50.848-0.840 49.140-0.028Q47.432 0.784 44.520 0.784ZM45.584-4.480L45.584-4.480Q48.776-4.480 50.792-6.300Q52.808-8.120 52.808-11.200L52.808-11.200L52.808-11.760L45.192-11.760Q43.120-11.760 41.832-10.864Q40.544-9.968 40.544-8.232L40.544-8.232Q40.544-6.552 41.888-5.516Q43.232-4.480 45.584-4.480Z M83.496 0.784L83.496 0.784Q79.576 0.784 77.476-0.588Q75.376-1.960 74.424-3.640L74.424-3.640L73.472-3.640L73.472 0L67.144 0L67.144-39.200L73.584-39.200L73.584-24.192L74.536-24.192Q75.152-25.312 76.244-26.264Q77.336-27.216 79.100-27.832Q80.864-28.448 83.496-28.448L83.496-28.448Q86.912-28.448 89.768-26.796Q92.624-25.144 94.360-21.952Q96.096-18.760 96.096-14.280L96.096-14.280L96.096-13.384Q96.096-8.904 94.360-5.712Q92.624-2.520 89.740-0.868Q86.856 0.784 83.496 0.784ZM81.592-4.816L81.592-4.816Q85.064-4.816 87.360-7.084Q89.656-9.352 89.656-13.552L89.656-13.552L89.656-14.112Q89.656-18.368 87.388-20.608Q85.120-22.848 81.592-22.848L81.592-22.848Q78.120-22.848 75.796-20.608Q73.472-18.368 73.472-14.112L73.472-14.112L73.472-13.552Q73.472-9.352 75.796-7.084Q78.120-4.816 81.592-4.816Z M108.248 0L101.808 0L101.808-27.664L108.248-27.664L108.248 0ZM105-31.192L105-31.192Q103.264-31.192 102.004-32.340Q100.744-33.488 100.744-35.392L100.744-35.392Q100.744-37.296 102.004-38.444Q103.264-39.592 105-39.592L105-39.592Q106.848-39.592 108.052-38.444Q109.256-37.296 109.256-35.392L109.256-35.392Q109.256-33.488 108.052-32.340Q106.848-31.192 105-31.192Z M121.744 0L115.304 0L115.304-27.664L121.632-27.664L121.632-23.800L122.584-23.800Q123.312-25.368 125.216-26.768Q127.120-28.168 130.984-28.168L130.984-28.168Q134.176-28.168 136.640-26.712Q139.104-25.256 140.476-22.680Q141.848-20.104 141.848-16.576L141.848-16.576L141.848 0L135.408 0L135.408-16.072Q135.408-19.432 133.756-21.084Q132.104-22.736 129.080-22.736L129.080-22.736Q125.664-22.736 123.704-20.468Q121.744-18.200 121.744-14L121.744-14L121.744 0Z" fill="url(#gt)"></path></g>
</svg>